<?xml version="1.0" encoding="utf-8"?>
<!-- Svg Vector Icons : http://www.onlinewebfonts.com/icon -->
<!DOCTYPE svg PUBLIC "-//W3C//DTD SVG 1.1//EN" "http://www.w3.org/Graphics/SVG/1.1/DTD/svg11.dtd"> 
<svg version="1.1" xmlns="http://www.w3.org/2000/svg" xmlns:xlink="http://www.w3.org/1999/xlink" 
x="0px" y="0px" viewBox="0 0 256 150" enable-background="new 0 0 256 256" xml:space="preserve">
    <metadata> Svg Vector Icons : http://www.onlinewebfonts.com/icon </metadata>
    <g>
        <g>
            <g>
                <path d="M125,10.8c-0.7,0.4-26.8,26.1-57.9,57.3c-61.5,61.5-57.6,57.4-56.8,61.7c0.4,2.3,3.2,5,5.4,5.4c4.4,0.8,0.5,4.4,58.7-53.8L128,27.9l53.6,53.5c58.2,58.2,54.3,54.6,58.7,53.8c2.3-0.4,5-3.2,5.4-5.4c0.8-4.2,1.3-3.5-20.3-25.2l-20-20l-0.1-34.9c-0.1-34.4-0.1-34.9-1.1-36.1c-0.5-0.7-1.5-1.7-2.2-2.2c-1.2-0.9-1.8-1-18.7-1s-17.5,0-18.7,1c-3.2,2.3-3.1,2.2-3.4,16.1L161,40.1l-14.3-14.3c-7.8-7.9-14.9-14.6-15.8-15C129.1,10,126.8,10,125,10.8z M190.7,47.3v22.5l-7.4-7.4l-7.4-7.4V40V24.9h7.4h7.4V47.3z" />
                <rect width="50" x="100"  y="80" height="70" style="" />
            </g>
        </g>
    </g>
</svg>